<mxfile host="app.diagrams.net" modified="2024-01-24T20:11:35.449Z" agent="Mozilla/5.0 (Macintosh; Intel Mac OS X 10_15_7) AppleWebKit/537.36 (KHTML, like Gecko) Chrome/100.0.4896.127 Safari/537.36 OPR/86.0.4363.64" etag="2_DwoiVGrEdd_2QE2jIq" version="23.0.1" type="github">
  <diagram id="C5RBs43oDa-KdzZeNtuy" name="Page-1">
    <mxGraphModel dx="1074" dy="639" grid="1" gridSize="10" guides="1" tooltips="1" connect="1" arrows="1" fold="1" page="1" pageScale="1" pageWidth="827" pageHeight="1169" math="0" shadow="0">
      <root>
        <mxCell id="WIyWlLk6GJQsqaUBKTNV-0" />
        <mxCell id="WIyWlLk6GJQsqaUBKTNV-1" parent="WIyWlLk6GJQsqaUBKTNV-0" />
        <mxCell id="gLOpjrWsr7CwgDJ90xU5-5" value="Point" style="swimlane;fontStyle=1;align=center;verticalAlign=top;childLayout=stackLayout;horizontal=1;startSize=26;horizontalStack=0;resizeParent=1;resizeParentMax=0;resizeLast=0;collapsible=1;marginBottom=0;whiteSpace=wrap;html=1;" vertex="1" parent="WIyWlLk6GJQsqaUBKTNV-1">
          <mxGeometry x="110" y="80" width="400" height="220" as="geometry">
            <mxRectangle x="510" y="170" width="70" height="30" as="alternateBounds" />
          </mxGeometry>
        </mxCell>
        <mxCell id="gLOpjrWsr7CwgDJ90xU5-11" value="" style="line;strokeWidth=1;fillColor=none;align=left;verticalAlign=middle;spacingTop=-1;spacingLeft=3;spacingRight=3;rotatable=0;labelPosition=right;points=[];portConstraint=eastwest;strokeColor=inherit;" vertex="1" parent="gLOpjrWsr7CwgDJ90xU5-5">
          <mxGeometry y="26" width="400" height="8" as="geometry" />
        </mxCell>
        <mxCell id="gLOpjrWsr7CwgDJ90xU5-6" value="+ private int x;&lt;br&gt;+ private int y;" style="text;strokeColor=none;fillColor=none;align=left;verticalAlign=top;spacingLeft=4;spacingRight=4;overflow=hidden;rotatable=0;points=[[0,0.5],[1,0.5]];portConstraint=eastwest;whiteSpace=wrap;html=1;" vertex="1" parent="gLOpjrWsr7CwgDJ90xU5-5">
          <mxGeometry y="34" width="400" height="36" as="geometry" />
        </mxCell>
        <mxCell id="gLOpjrWsr7CwgDJ90xU5-12" value="" style="line;strokeWidth=1;fillColor=none;align=left;verticalAlign=middle;spacingTop=-1;spacingLeft=3;spacingRight=3;rotatable=0;labelPosition=right;points=[];portConstraint=eastwest;strokeColor=inherit;" vertex="1" parent="gLOpjrWsr7CwgDJ90xU5-5">
          <mxGeometry y="70" width="400" height="8" as="geometry" />
        </mxCell>
        <mxCell id="gLOpjrWsr7CwgDJ90xU5-8" value="+ public double distanceFromOrigin()&lt;br&gt;+&amp;nbsp;public boolean equals(Object o)&lt;br&gt;+&amp;nbsp;public int getX()&lt;br&gt;+&amp;nbsp;public int getY()&lt;br&gt;+&amp;nbsp;public void setLocation(int newX, int newY)&lt;br&gt;+&amp;nbsp;public String toString()&lt;br&gt;+&amp;nbsp;public void translate(int dx, int dy)" style="text;strokeColor=none;fillColor=none;align=left;verticalAlign=top;spacingLeft=4;spacingRight=4;overflow=hidden;rotatable=0;points=[[0,0.5],[1,0.5]];portConstraint=eastwest;whiteSpace=wrap;html=1;" vertex="1" parent="gLOpjrWsr7CwgDJ90xU5-5">
          <mxGeometry y="78" width="400" height="142" as="geometry" />
        </mxCell>
      </root>
    </mxGraphModel>
  </diagram>
</mxfile>
